<svg width="192" height="192" viewBox="0 0 192 192" fill="none" xmlns="http://www.w3.org/2000/svg">
  <rect width="192" height="192" rx="24" fill="#2563eb"/>
  <path d="M96 48C84.9543 48 76 56.9543 76 68V80C76 85.5228 72.5228 89 67 89C61.4772 89 58 85.5228 58 80V68C58 56.9543 49.0457 48 38 48C26.9543 48 18 56.9543 18 68V80C18 85.5228 14.5228 89 9 89C3.47715 89 0 85.5228 0 80V68C0 30.3858 30.3858 0 68 0H124C161.614 0 192 30.3858 192 68V80C192 85.5228 188.523 89 183 89C177.477 89 174 85.5228 174 80V68C174 56.9543 165.046 48 154 48C142.954 48 134 56.9543 134 68V80C134 85.5228 130.523 89 125 89C119.477 89 116 85.5228 116 80V68C116 56.9543 107.046 48 96 48Z" fill="white" opacity="0.2"/>
  <circle cx="96" cy="96" r="40" fill="white"/>
  <path d="M96 64C88.268 64 82 70.268 82 78V96C82 103.732 88.268 110 96 110C103.732 110 110 103.732 110 96V78C110 70.268 103.732 64 96 64Z" fill="#2563eb"/>
  <path d="M96 128C100.418 128 104 131.582 104 136V144C104 148.418 100.418 152 96 152C91.582 152 88 148.418 88 144V136C88 131.582 91.582 128 96 128Z" fill="#2563eb"/>
</svg>

